<?xml version="1.0" encoding="UTF-8" standalone="no"?>
<!-- Created with Inkscape (http://www.inkscape.org/) -->

<svg
   xmlns:dc="http://purl.org/dc/elements/1.1/"
   xmlns:cc="http://creativecommons.org/ns#"
   xmlns:rdf="http://www.w3.org/1999/02/22-rdf-syntax-ns#"
   xmlns:svg="http://www.w3.org/2000/svg"
   xmlns="http://www.w3.org/2000/svg"
   xmlns:sodipodi="http://sodipodi.sourceforge.net/DTD/sodipodi-0.dtd"
   xmlns:inkscape="http://www.inkscape.org/namespaces/inkscape"
   width="640px"
   height="480px"
   id="svg3134"
   version="1.1"
   inkscape:version="0.91 r"
   sodipodi:docname="logo-old.svg">
  <defs
     id="defs3136" />
  <sodipodi:namedview
     id="base"
     pagecolor="#ffffff"
     bordercolor="#666666"
     borderopacity="1.0"
     inkscape:pageopacity="0.0"
     inkscape:pageshadow="2"
     inkscape:zoom="1.66"
     inkscape:cx="246.25686"
     inkscape:cy="268.5378"
     inkscape:current-layer="layer1"
     inkscape:document-units="px"
     showgrid="true"
     inkscape:window-width="1873"
     inkscape:window-height="1056"
     inkscape:window-x="47"
     inkscape:window-y="24"
     inkscape:window-maximized="1"
     inkscape:snap-grids="true"
     inkscape:snap-to-guides="false"
     showguides="true"
     inkscape:guide-bbox="true"
     objecttolerance="41"
     guidetolerance="10000">
    <inkscape:grid
       type="xygrid"
       id="grid3396"
       spacingx="10"
       spacingy="10" />
  </sodipodi:namedview>
  <metadata
     id="metadata3139">
    <rdf:RDF>
      <cc:Work
         rdf:about="">
        <dc:format>image/svg+xml</dc:format>
        <dc:type
           rdf:resource="http://purl.org/dc/dcmitype/StillImage" />
        <dc:title></dc:title>
      </cc:Work>
    </rdf:RDF>
  </metadata>
  <g
     id="layer1"
     inkscape:label="Layer 1"
     inkscape:groupmode="layer">
    <text
       xml:space="preserve"
       style="font-style:normal;font-weight:normal;font-size:114.82669067px;line-height:150%;font-family:sans-serif;letter-spacing:0px;word-spacing:0px;fill:#000000;fill-opacity:1;stroke:none;stroke-width:1px;stroke-linecap:butt;stroke-linejoin:miter;stroke-opacity:1"
       x="-184.79182"
       y="215.9024"
       id="text3554"
       sodipodi:linespacing="150%"
       transform="matrix(0.59430101,-0.51573238,0.81669506,0.97392382,0,0)"><tspan
         sodipodi:role="line"
         id="tspan3556"
         x="-184.79182"
         y="215.9024"><tspan
           style="font-style:normal;font-variant:normal;font-weight:normal;font-stretch:normal;font-size:114.82669067px;line-height:150%;font-family:'Arial Black';-inkscape-font-specification:'Arial Black, Normal';text-align:justify;writing-mode:lr-tb;text-anchor:start"
           id="tspan3558"> Graphs</tspan></tspan></text>
    <g
       id="g4187"
       transform="matrix(2.4439481,0,0,2.4898001,-392.96326,-415.88997)">
      <path
         style="fill:#40bf4c;fill-opacity:1"
         d="m 306.53525,253.83733 0,-8.5 -13,0 -13,0 0,-7 0,-7 13,0 13,0 0,-9 0,-9 8,0 8,0 0,9 0,9 13.5,0 13.5,0 0,6.97097 0,6.97098 -13.25,0.27902 -13.25,0.27903 -0.29044,8.25 -0.29044,8.25 -7.95956,0 -7.95956,0 z"
         id="path3462"
         inkscape:connector-curvature="0" />
      <path
         style="fill:#40bf4c;fill-opacity:1"
         d="m 352.36257,220.2239 c -0.74279,-3.71392 -0.94449,-3.42973 3.03949,-4.28261 2.93725,-0.62881 3.20635,-0.45381 3.8569,2.5081 0.76528,3.48431 -0.41943,4.89211 -4.13945,4.91892 -1.59,0.0114 -2.2841,-0.78019 -2.75694,-3.14441 z"
         id="path3460"
         inkscape:connector-curvature="0" />
      <path
         style="fill:#40bf4c;fill-opacity:1"
         d="m 269.67836,238.44694 c -0.94509,-0.59884 -1.14465,-1.8261 -0.65756,-4.04384 0.65055,-2.96191 0.91965,-3.13691 3.8569,-2.5081 3.98398,0.85288 3.78228,0.56869 3.03949,4.28261 -0.65225,3.26128 -3.20683,4.19049 -6.23883,2.26933 z"
         id="path3458"
         inkscape:connector-curvature="0" />
      <path
         style="fill:#40bf4c;fill-opacity:1"
         d="m 365.3046,207.40082 c -0.97397,-3.17349 -0.87771,-3.38331 2.01471,-4.39162 1.67065,-0.58239 3.15137,-1.05889 3.2905,-1.05889 0.4817,0 2.45604,6.32589 2.08892,6.69301 -0.20278,0.20279 -1.71928,0.75604 -3.36999,1.22946 -2.80739,0.80515 -3.06738,0.64545 -4.02414,-2.47196 z"
         id="path3456"
         inkscape:connector-curvature="0" />
      <path
         style="fill:#40bf4c;fill-opacity:1"
         d="m 255.78525,235.13911 c -1.7875,-0.47243 -3.25,-1.00395 -3.25,-1.18115 0,-0.1772 0.49915,-1.75406 1.10923,-3.50413 0.91204,-2.61627 1.48981,-3.06573 3.25,-2.52826 4.14258,1.26494 4.43043,1.70725 3.24882,4.99213 -1.03407,2.8747 -1.32505,3.02302 -4.35805,2.22141 z"
         id="path3454"
         inkscape:connector-curvature="0" />
      <path
         style="fill:#40bf4c;fill-opacity:1"
         d="m 245.0208,250.98967 c -7.44201,10.84149 -12.06914,15.79693 -22.93384,24.56111 l -9.79256,7.89932 -1.95057,-3.10895 -1.95056,-3.10895 4.97064,-3.54327 c 10.87075,-7.74908 19.21699,-16.48676 26.72178,-27.97501 4.60563,-7.05024 4.61287,-7.05575 7.39223,-5.62217 1.53014,0.78925 2.73422,1.91657 2.67574,2.50515 -0.0585,0.58859 -2.36829,4.36533 -5.13286,8.39277 z"
         id="path3450"
         inkscape:connector-curvature="0" />
      <path
         style="fill:#40bf4c;fill-opacity:1"
         d="m 205.52936,295.55555 c -1.52994,-3.35787 -1.59653,-3.17611 1.80875,-4.93705 2.90195,-1.50066 3.00339,-1.46947 4.47476,1.37584 1.43273,2.7706 1.38758,2.98858 -0.93408,4.50979 -3.28831,2.15458 -3.99241,2.02973 -5.34943,-0.94858 z"
         id="path3446"
         inkscape:connector-curvature="0" />
      <path
         style="fill:#40bf4c;fill-opacity:1"
         d="m 197.57131,310.1662 c -0.6038,-1.73208 -1.09782,-3.26306 -1.09782,-3.40218 0,-0.22788 5.94169,-2.4486 6.5514,-2.4486 0.13912,0 0.72372,1.35046 1.29912,3.00103 0.96336,2.76352 0.81674,3.11967 -1.85252,4.5 -3.77382,1.95152 -3.6274,2.00083 -4.90018,-1.65025 z"
         id="path3442"
         inkscape:connector-curvature="0" />
      <path
         style="fill:#40bf4c;fill-opacity:1"
         d="m 377.43113,199.42423 c -2.1876,-0.57167 -2.18224,-0.77619 0.25,-9.55323 2.47969,-8.94824 2.50293,-8.57624 -0.5,-8.00219 -1.84865,0.35339 -2.5,0.0485 -2.5,-1.17006 0,-0.90638 0.57475,-1.86851 1.27722,-2.13807 0.70247,-0.26957 2.3837,-2.28045 3.73607,-4.46862 2.0259,-3.27798 3.01446,-3.9785 5.61437,-3.9785 2.51679,0 3.28029,0.49712 3.77191,2.4559 0.33902,1.35074 1.12185,3.71324 1.73962,5.25 2.47807,6.16438 1.30071,9.90716 -2.13766,6.79549 -2.06349,-1.86744 -1.83495,-2.35222 -5.06708,10.74861 -1.18002,4.78301 -1.81783,5.20179 -6.18445,4.06067 z"
         id="path3440"
         inkscape:connector-curvature="0" />
      <path
         style="fill:#40bf4c;fill-opacity:1"
         d="m 187.36671,326.84089 -7.26229,6.69702 3.21129,1.48561 c 1.7662,0.81709 3.14463,1.71507 3.06315,1.99552 -0.0815,0.28044 -2.28558,0.71482 -4.89802,0.96529 -2.61244,0.25047 -5.55079,0.59651 -6.52968,0.76896 -1.22266,0.21541 -2.26665,-0.6222 -3.33511,-2.67584 -1.23692,-2.37741 -1.15878,-4.31731 0.3817,-9.47589 1.06536,-3.56757 2.60594,-6.84828 3.42352,-7.29047 2.11577,-1.14432 2.35782,-0.0125 0.8015,3.74777 -0.74399,1.7976 -0.90803,3.41441 -0.36453,3.59291 0.54351,0.1785 3.85202,-2.40013 7.35225,-5.73028 3.50023,-3.33017 6.62367,-5.97083 6.94094,-5.86814 0.31729,0.10269 1.45454,1.29006 2.52723,2.63861 l 1.95035,2.45191 z"
         id="path3050"
         inkscape:connector-curvature="0" />
      <path
         sodipodi:nodetypes="ccccccccc"
         style="fill:#d8372c;fill-opacity:1"
         d="m 280.84173,275.15053 0,-7.5 34.5,0 34.5,0 0,7.5 0,7.5 -34.5,0 -34.5,0 z"
         id="path4113"
         inkscape:connector-curvature="0" />
      <path
         sodipodi:nodetypes="sssssscssssssscccccccsssssss"
         style="fill:#666666;fill-opacity:1;fill-rule:nonzero"
         d="m 305.37638,349.62884 c -7.82337,-2.34524 -9.93249,-3.49941 -14.92004,-8.16468 -6.87887,-6.43437 -9.31806,-12.59298 -9.31806,-23.52679 0,-9.89596 2.18037,-16.19728 7.53932,-21.78886 3.82241,-3.98833 9.65386,-7.16237 13.15894,-7.16237 2.48831,0 2.53984,0.14842 2.53984,7.31479 l 0,7.31479 -3.45481,1.64748 c -4.81886,2.29795 -6.86084,6.68232 -6.35692,13.64901 0.80898,11.18406 7.23177,15.57393 22.7861,15.57393 7.49151,0 10.17602,-0.39397 12.57134,-1.84493 6.58103,-3.98644 9.88655,-12.78524 7.50927,-19.98849 -1.34692,-4.08119 -7.17683,-9.66658 -10.08978,-9.66658 -1.76771,0 -1.9652,0.70826 -1.9652,7.04772 l 0,7.04771 -6.25,-0.29771 -6.25,-0.29772 0,-14 0,-14 18.5,0 18.5,0 0.30226,5.25 c 0.259,4.49869 0.0444,5.25219 -1.5,5.26531 -4.31224,0.0366 -4.5766,1.53706 -1.13167,6.42294 3.21746,4.56328 3.32941,5.04721 3.32941,14.3919 0,8.31506 -0.34655,10.34833 -2.47354,14.51253 -5.22325,10.22604 -15.21053,15.75616 -29.43932,16.30103 -5.72334,0.21916 -10.75291,-0.15138 -13.58714,-1.00101 z"
         id="path4115"
         inkscape:connector-curvature="0" />
      <path
         sodipodi:nodetypes="ccccccccc"
         style="fill:#d8372c;fill-opacity:1"
         d="m 225.14836,354.32791 -7.35596,0 0,-35.17557 0,-35.17557 7.35596,0 7.35596,0 0,35.17557 0,35.17557 z"
         id="path4113-9"
         inkscape:connector-curvature="0" />
      <path
         sodipodi:nodetypes="ccccccccc"
         style="fill:#d8372c;fill-opacity:1"
         d="m 247.59225,354.32791 -7.35596,0 0,-48.56478 0,-48.56478 7.35596,0 7.35596,0 0,48.56478 0,48.56478 z"
         id="path4113-9-6"
         inkscape:connector-curvature="0" />
      <path
         sodipodi:nodetypes="ccccccccc"
         style="fill:#d8372c;fill-opacity:1"
         d="m 268.12601,354.32791 -7.35596,0 0,-48.56478 0,-48.56478 7.35596,0 7.35596,0 0,48.56478 0,48.56478 z"
         id="path4113-9-6-4"
         inkscape:connector-curvature="0" />
      <path
         sodipodi:nodetypes="ccccccccc"
         style="fill:#d8372c;fill-opacity:1"
         d="m 369.0041,354.32791 -7.35596,0 0,-64.08409 0,-64.08409 7.35596,0 7.35596,0 0,64.08409 0,64.08409 z"
         id="path4113-9-6-4-3"
         inkscape:connector-curvature="0" />
      <path
         sodipodi:nodetypes="ccccccccc"
         style="fill:#d8372c;fill-opacity:1"
         d="m 390.37354,354.32791 -7.35596,0 0,-71.99589 0,-71.9959 7.35596,0 7.35596,0 0,71.9959 0,71.99589 z"
         id="path4113-9-6-4-3-5"
         inkscape:connector-curvature="0" />
      <path
         sodipodi:nodetypes="ccccccccc"
         style="fill:#d8372c;fill-opacity:1"
         d="m 411.14607,354.32791 -7.35596,0 0,-91.1668 0,-91.16681 7.35596,0 7.35596,0 0,91.16681 0,91.1668 z"
         id="path4113-9-6-4-3-5-1"
         inkscape:connector-curvature="0" />
    </g>
  </g>
</svg>
